<svg width="2677" height="2053" xmlns="http://www.w3.org/2000/svg" xmlns:xlink="http://www.w3.org/1999/xlink" overflow="hidden"><defs><clipPath id="clip0"><rect x="1888" y="206" width="2677" height="2053"/></clipPath><clipPath id="clip1"><rect x="1892" y="210" width="2668" height="2045"/></clipPath><clipPath id="clip2"><rect x="1892" y="210" width="2668" height="2045"/></clipPath><clipPath id="clip3"><rect x="2023" y="261" width="2149" height="1891"/></clipPath><clipPath id="clip4"><rect x="1892" y="210" width="2668" height="2045"/></clipPath><clipPath id="clip5"><rect x="2023" y="261" width="2149" height="1891"/></clipPath><clipPath id="clip6"><rect x="1892" y="210" width="2668" height="2045"/></clipPath><clipPath id="clip7"><rect x="2023" y="261" width="2149" height="1891"/></clipPath><clipPath id="clip8"><rect x="1892" y="210" width="2668" height="2045"/></clipPath><clipPath id="clip9"><rect x="2023" y="261" width="2149" height="1891"/></clipPath><clipPath id="clip10"><rect x="1892" y="210" width="2668" height="2045"/></clipPath><clipPath id="clip11"><rect x="1892" y="210" width="2668" height="2045"/></clipPath><clipPath id="clip12"><rect x="1892" y="210" width="2668" height="2045"/></clipPath><clipPath id="clip13"><rect x="1892" y="210" width="2668" height="2045"/></clipPath><clipPath id="clip14"><rect x="1892" y="210" width="2668" height="2045"/></clipPath><clipPath id="clip15"><rect x="1892" y="210" width="2668" height="2045"/></clipPath><clipPath id="clip16"><rect x="1892" y="210" width="2668" height="2045"/></clipPath><clipPath id="clip17"><rect x="1892" y="210" width="2668" height="2045"/></clipPath><clipPath id="clip18"><rect x="1892" y="210" width="2668" height="2045"/></clipPath><clipPath id="clip19"><rect x="1892" y="210" width="2668" height="2045"/></clipPath><clipPath id="clip20"><rect x="1892" y="210" width="2668" height="2045"/></clipPath><clipPath id="clip21"><rect x="1892" y="210" width="2668" height="2045"/></clipPath><clipPath id="clip22"><rect x="1892" y="210" width="2668" height="2045"/></clipPath><clipPath id="clip23"><rect x="1892" y="210" width="2668" height="2045"/></clipPath><clipPath id="clip24"><rect x="1892" y="210" width="2668" height="2045"/></clipPath><clipPath id="clip25"><rect x="1892" y="210" width="2668" height="2045"/></clipPath><clipPath id="clip26"><rect x="1892" y="210" width="2668" height="2045"/></clipPath><clipPath id="clip27"><rect x="1892" y="210" width="2668" height="2045"/></clipPath><clipPath id="clip28"><rect x="1892" y="210" width="2668" height="2045"/></clipPath><clipPath id="clip29"><rect x="1892" y="210" width="2668" height="2045"/></clipPath><clipPath id="clip30"><rect x="1892" y="210" width="2668" height="2045"/></clipPath><clipPath id="clip31"><rect x="1892" y="210" width="2668" height="2045"/></clipPath><clipPath id="clip32"><rect x="1892" y="210" width="2668" height="2045"/></clipPath><clipPath id="clip33"><rect x="1892" y="210" width="2668" height="2045"/></clipPath><clipPath id="clip34"><rect x="1892" y="210" width="2668" height="2045"/></clipPath><clipPath id="clip35"><rect x="1892" y="210" width="2668" height="2045"/></clipPath><clipPath id="clip36"><rect x="1892" y="210" width="2668" height="2045"/></clipPath><clipPath id="clip37"><rect x="1892" y="210" width="2668" height="2045"/></clipPath><clipPath id="clip38"><rect x="1892" y="210" width="2668" height="2045"/></clipPath><clipPath id="clip39"><rect x="1892" y="210" width="2668" height="2045"/></clipPath><clipPath id="clip40"><rect x="1892" y="210" width="2668" height="2045"/></clipPath><clipPath id="clip41"><rect x="1892" y="210" width="2668" height="2045"/></clipPath></defs><g clip-path="url(#clip0)" transform="translate(-1888 -206)"><rect x="1893" y="211" width="2667" height="2044" fill="#FFFFFF" fill-opacity="1"/><g clip-path="url(#clip1)"><path d="M2023.5 1771.56 4168.5 1771.56M2023.5 1393.55 4168.5 1393.55M2023.5 1016.53 4168.5 1016.53M2023.5 638.521 4168.5 638.521M2023.5 261.5 4168.5 261.5" stroke="#D9D9D9" stroke-width="3.4375" stroke-linecap="butt" stroke-linejoin="round" stroke-miterlimit="10" stroke-opacity="1" fill="none" fill-rule="nonzero"/></g><g clip-path="url(#clip2)"><path d="M2023.5 2148.5 4168.5 2148.5" stroke="#D9D9D9" stroke-width="3.4375" stroke-linecap="butt" stroke-linejoin="round" stroke-miterlimit="10" stroke-opacity="1" fill="none" fill-rule="evenodd"/></g><g clip-path="url(#clip3)"><path d="M2113 1892.06 2292.08 1945.06 2471.08 1937.06 2649.09 1945.06 2828.09 1952.06 3007.1 1945.06 3186.1 1824 3364.11 1899.06 3543.12 1967.06 3722.12 1998 3901.13 1869.06 4080 1975.06" stroke="#4472C4" stroke-width="10.3125" stroke-linecap="round" stroke-linejoin="round" stroke-miterlimit="10" stroke-opacity="1" fill="none" fill-rule="nonzero"/></g><g clip-path="url(#clip4)"><path d="M2124.42 1891.33C2124.42 1897.41 2119.49 1902.33 2113.42 1902.33 2107.34 1902.33 2102.42 1897.41 2102.42 1891.33 2102.42 1885.26 2107.34 1880.33 2113.42 1880.33 2119.49 1880.33 2124.42 1885.26 2124.42 1891.33Z" stroke="#4472C4" stroke-width="3.4375" stroke-linecap="butt" stroke-linejoin="round" stroke-miterlimit="10" stroke-opacity="1" fill="#4472C4" fill-rule="nonzero" fill-opacity="1"/><path d="M2302.42 1944.33C2302.42 1950.41 2297.49 1955.33 2291.42 1955.33 2285.34 1955.33 2280.42 1950.41 2280.42 1944.33 2280.42 1938.26 2285.34 1933.33 2291.42 1933.33 2297.49 1933.33 2302.42 1938.26 2302.42 1944.33Z" stroke="#4472C4" stroke-width="3.4375" stroke-linecap="butt" stroke-linejoin="round" stroke-miterlimit="10" stroke-opacity="1" fill="#4472C4" fill-rule="nonzero" fill-opacity="1"/><path d="M2481.42 1937.33C2481.42 1943.41 2476.49 1948.33 2470.42 1948.33 2464.34 1948.33 2459.42 1943.41 2459.42 1937.33 2459.42 1931.26 2464.34 1926.33 2470.42 1926.33 2476.49 1926.33 2481.42 1931.26 2481.42 1937.33Z" stroke="#4472C4" stroke-width="3.4375" stroke-linecap="butt" stroke-linejoin="round" stroke-miterlimit="10" stroke-opacity="1" fill="#4472C4" fill-rule="nonzero" fill-opacity="1"/><path d="M2660.42 1944.33C2660.42 1950.41 2655.49 1955.33 2649.42 1955.33 2643.34 1955.33 2638.42 1950.41 2638.42 1944.33 2638.42 1938.26 2643.34 1933.33 2649.42 1933.33 2655.49 1933.33 2660.42 1938.26 2660.42 1944.33Z" stroke="#4472C4" stroke-width="3.4375" stroke-linecap="butt" stroke-linejoin="round" stroke-miterlimit="10" stroke-opacity="1" fill="#4472C4" fill-rule="nonzero" fill-opacity="1"/><path d="M2839.42 1952.33C2839.42 1958.41 2834.49 1963.33 2828.42 1963.33 2822.34 1963.33 2817.42 1958.41 2817.42 1952.33 2817.42 1946.26 2822.34 1941.33 2828.42 1941.33 2834.49 1941.33 2839.42 1946.26 2839.42 1952.33Z" stroke="#4472C4" stroke-width="3.4375" stroke-linecap="butt" stroke-linejoin="round" stroke-miterlimit="10" stroke-opacity="1" fill="#4472C4" fill-rule="nonzero" fill-opacity="1"/><path d="M3017.42 1944.33C3017.42 1950.41 3012.49 1955.33 3006.42 1955.33 3000.34 1955.33 2995.42 1950.41 2995.42 1944.33 2995.42 1938.26 3000.34 1933.33 3006.42 1933.33 3012.49 1933.33 3017.42 1938.26 3017.42 1944.33Z" stroke="#4472C4" stroke-width="3.4375" stroke-linecap="butt" stroke-linejoin="round" stroke-miterlimit="10" stroke-opacity="1" fill="#4472C4" fill-rule="nonzero" fill-opacity="1"/><path d="M3196.42 1824.33C3196.42 1830.41 3191.49 1835.33 3185.42 1835.33 3179.34 1835.33 3174.42 1830.41 3174.42 1824.33 3174.42 1818.26 3179.34 1813.33 3185.42 1813.33 3191.49 1813.33 3196.42 1818.26 3196.42 1824.33Z" stroke="#4472C4" stroke-width="3.4375" stroke-linecap="butt" stroke-linejoin="round" stroke-miterlimit="10" stroke-opacity="1" fill="#4472C4" fill-rule="nonzero" fill-opacity="1"/><path d="M3375.42 1899.33C3375.42 1905.41 3370.49 1910.33 3364.42 1910.33 3358.34 1910.33 3353.42 1905.41 3353.42 1899.33 3353.42 1893.26 3358.34 1888.33 3364.42 1888.33 3370.49 1888.33 3375.42 1893.26 3375.42 1899.33Z" stroke="#4472C4" stroke-width="3.4375" stroke-linecap="butt" stroke-linejoin="round" stroke-miterlimit="10" stroke-opacity="1" fill="#4472C4" fill-rule="nonzero" fill-opacity="1"/><path d="M3554.42 1967.33C3554.42 1973.41 3549.49 1978.33 3543.42 1978.33 3537.34 1978.33 3532.42 1973.41 3532.42 1967.33 3532.42 1961.26 3537.34 1956.33 3543.42 1956.33 3549.49 1956.33 3554.42 1961.26 3554.42 1967.33Z" stroke="#4472C4" stroke-width="3.4375" stroke-linecap="butt" stroke-linejoin="round" stroke-miterlimit="10" stroke-opacity="1" fill="#4472C4" fill-rule="nonzero" fill-opacity="1"/><path d="M3732.42 1997.33C3732.42 2003.41 3727.49 2008.33 3721.42 2008.33 3715.34 2008.33 3710.42 2003.41 3710.42 1997.33 3710.42 1991.26 3715.34 1986.33 3721.42 1986.33 3727.49 1986.33 3732.42 1991.26 3732.42 1997.33Z" stroke="#4472C4" stroke-width="3.4375" stroke-linecap="butt" stroke-linejoin="round" stroke-miterlimit="10" stroke-opacity="1" fill="#4472C4" fill-rule="nonzero" fill-opacity="1"/><path d="M3911.42 1869.33C3911.42 1875.41 3906.49 1880.33 3900.42 1880.33 3894.34 1880.33 3889.42 1875.41 3889.42 1869.33 3889.42 1863.26 3894.34 1858.33 3900.42 1858.33 3906.49 1858.33 3911.42 1863.26 3911.42 1869.33Z" stroke="#4472C4" stroke-width="3.4375" stroke-linecap="butt" stroke-linejoin="round" stroke-miterlimit="10" stroke-opacity="1" fill="#4472C4" fill-rule="nonzero" fill-opacity="1"/><path d="M4090.42 1975.33C4090.42 1981.41 4085.49 1986.33 4079.42 1986.33 4073.34 1986.33 4068.42 1981.41 4068.42 1975.33 4068.42 1969.26 4073.34 1964.33 4079.42 1964.33 4085.49 1964.33 4090.42 1969.26 4090.42 1975.33Z" stroke="#4472C4" stroke-width="3.4375" stroke-linecap="butt" stroke-linejoin="round" stroke-miterlimit="10" stroke-opacity="1" fill="#4472C4" fill-rule="nonzero" fill-opacity="1"/></g><g clip-path="url(#clip5)"><path d="M2113 1024.03 2292.08 1348.04 2471.08 1333.04 2649.09 1379 2828.09 1197.04 3007.1 1039.03 3186.1 1016 3364.11 1137.04 3543.12 1190.04 3722.12 1024.03 3901.13 1288.04 4080 1258.04" stroke="#ED7D31" stroke-width="10.3125" stroke-linecap="round" stroke-linejoin="round" stroke-miterlimit="10" stroke-opacity="1" fill="none" fill-rule="nonzero"/></g><g clip-path="url(#clip6)"><path d="M2124.42 1023.33C2124.42 1029.41 2119.49 1034.33 2113.42 1034.33 2107.34 1034.33 2102.42 1029.41 2102.42 1023.33 2102.42 1017.26 2107.34 1012.33 2113.42 1012.33 2119.49 1012.33 2124.42 1017.26 2124.42 1023.33Z" stroke="#ED7D31" stroke-width="3.4375" stroke-linecap="butt" stroke-linejoin="round" stroke-miterlimit="10" stroke-opacity="1" fill="#ED7D31" fill-rule="nonzero" fill-opacity="1"/><path d="M2302.42 1348.33C2302.42 1354.41 2297.49 1359.33 2291.42 1359.33 2285.34 1359.33 2280.42 1354.41 2280.42 1348.33 2280.42 1342.26 2285.34 1337.33 2291.42 1337.33 2297.49 1337.33 2302.42 1342.26 2302.42 1348.33Z" stroke="#ED7D31" stroke-width="3.4375" stroke-linecap="butt" stroke-linejoin="round" stroke-miterlimit="10" stroke-opacity="1" fill="#ED7D31" fill-rule="nonzero" fill-opacity="1"/><path d="M2481.42 1333.33C2481.42 1339.41 2476.49 1344.33 2470.42 1344.33 2464.34 1344.33 2459.42 1339.41 2459.42 1333.33 2459.42 1327.26 2464.34 1322.33 2470.42 1322.33 2476.49 1322.33 2481.42 1327.26 2481.42 1333.33Z" stroke="#ED7D31" stroke-width="3.4375" stroke-linecap="butt" stroke-linejoin="round" stroke-miterlimit="10" stroke-opacity="1" fill="#ED7D31" fill-rule="nonzero" fill-opacity="1"/><path d="M2660.42 1378.33C2660.42 1384.41 2655.49 1389.33 2649.42 1389.33 2643.34 1389.33 2638.42 1384.41 2638.42 1378.33 2638.42 1372.26 2643.34 1367.33 2649.42 1367.33 2655.49 1367.33 2660.42 1372.26 2660.42 1378.33Z" stroke="#ED7D31" stroke-width="3.4375" stroke-linecap="butt" stroke-linejoin="round" stroke-miterlimit="10" stroke-opacity="1" fill="#ED7D31" fill-rule="nonzero" fill-opacity="1"/><path d="M2839.42 1197.33C2839.42 1203.41 2834.49 1208.33 2828.42 1208.33 2822.34 1208.33 2817.42 1203.41 2817.42 1197.33 2817.42 1191.26 2822.34 1186.33 2828.42 1186.33 2834.49 1186.33 2839.42 1191.26 2839.42 1197.33Z" stroke="#ED7D31" stroke-width="3.4375" stroke-linecap="butt" stroke-linejoin="round" stroke-miterlimit="10" stroke-opacity="1" fill="#ED7D31" fill-rule="nonzero" fill-opacity="1"/><path d="M3017.42 1038.33C3017.42 1044.41 3012.49 1049.33 3006.42 1049.33 3000.34 1049.33 2995.42 1044.41 2995.42 1038.33 2995.42 1032.26 3000.34 1027.33 3006.42 1027.33 3012.49 1027.33 3017.42 1032.26 3017.42 1038.33Z" stroke="#ED7D31" stroke-width="3.4375" stroke-linecap="butt" stroke-linejoin="round" stroke-miterlimit="10" stroke-opacity="1" fill="#ED7D31" fill-rule="nonzero" fill-opacity="1"/><path d="M3196.42 1016.33C3196.42 1022.41 3191.49 1027.33 3185.42 1027.33 3179.34 1027.33 3174.42 1022.41 3174.42 1016.33 3174.42 1010.26 3179.34 1005.33 3185.42 1005.33 3191.49 1005.33 3196.42 1010.26 3196.42 1016.33Z" stroke="#ED7D31" stroke-width="3.4375" stroke-linecap="butt" stroke-linejoin="round" stroke-miterlimit="10" stroke-opacity="1" fill="#ED7D31" fill-rule="nonzero" fill-opacity="1"/><path d="M3375.42 1137.33C3375.42 1143.41 3370.49 1148.33 3364.42 1148.33 3358.34 1148.33 3353.42 1143.41 3353.42 1137.33 3353.42 1131.26 3358.34 1126.33 3364.42 1126.33 3370.49 1126.33 3375.42 1131.26 3375.42 1137.33Z" stroke="#ED7D31" stroke-width="3.4375" stroke-linecap="butt" stroke-linejoin="round" stroke-miterlimit="10" stroke-opacity="1" fill="#ED7D31" fill-rule="nonzero" fill-opacity="1"/><path d="M3554.42 1189.33C3554.42 1195.41 3549.49 1200.33 3543.42 1200.33 3537.34 1200.33 3532.42 1195.41 3532.42 1189.33 3532.42 1183.26 3537.34 1178.33 3543.42 1178.33 3549.49 1178.33 3554.42 1183.26 3554.42 1189.33Z" stroke="#ED7D31" stroke-width="3.4375" stroke-linecap="butt" stroke-linejoin="round" stroke-miterlimit="10" stroke-opacity="1" fill="#ED7D31" fill-rule="nonzero" fill-opacity="1"/><path d="M3732.42 1023.33C3732.42 1029.41 3727.49 1034.33 3721.42 1034.33 3715.34 1034.33 3710.42 1029.41 3710.42 1023.33 3710.42 1017.26 3715.34 1012.33 3721.42 1012.33 3727.49 1012.33 3732.42 1017.26 3732.42 1023.33Z" stroke="#ED7D31" stroke-width="3.4375" stroke-linecap="butt" stroke-linejoin="round" stroke-miterlimit="10" stroke-opacity="1" fill="#ED7D31" fill-rule="nonzero" fill-opacity="1"/><path d="M3911.42 1288.33C3911.42 1294.41 3906.49 1299.33 3900.42 1299.33 3894.34 1299.33 3889.42 1294.41 3889.42 1288.33 3889.42 1282.26 3894.34 1277.33 3900.42 1277.33 3906.49 1277.33 3911.42 1282.26 3911.42 1288.33Z" stroke="#ED7D31" stroke-width="3.4375" stroke-linecap="butt" stroke-linejoin="round" stroke-miterlimit="10" stroke-opacity="1" fill="#ED7D31" fill-rule="nonzero" fill-opacity="1"/><path d="M4090.42 1257.33C4090.42 1263.41 4085.49 1268.33 4079.42 1268.33 4073.34 1268.33 4068.42 1263.41 4068.42 1257.33 4068.42 1251.26 4073.34 1246.33 4079.42 1246.33 4085.49 1246.33 4090.42 1251.26 4090.42 1257.33Z" stroke="#ED7D31" stroke-width="3.4375" stroke-linecap="butt" stroke-linejoin="round" stroke-miterlimit="10" stroke-opacity="1" fill="#ED7D31" fill-rule="nonzero" fill-opacity="1"/></g><g clip-path="url(#clip7)"><path d="M2113 2134 2292.08 2013.07 2471 1922" stroke="#A5A5A5" stroke-width="10.3125" stroke-linecap="round" stroke-linejoin="round" stroke-miterlimit="10" stroke-opacity="1" fill="none" fill-rule="nonzero"/></g><g clip-path="url(#clip8)"><path d="M2124.42 2133.33C2124.42 2139.41 2119.49 2144.33 2113.42 2144.33 2107.34 2144.33 2102.42 2139.41 2102.42 2133.33 2102.42 2127.26 2107.34 2122.33 2113.42 2122.33 2119.49 2122.33 2124.42 2127.26 2124.42 2133.33Z" stroke="#A5A5A5" stroke-width="3.4375" stroke-linecap="butt" stroke-linejoin="round" stroke-miterlimit="10" stroke-opacity="1" fill="#A5A5A5" fill-rule="nonzero" fill-opacity="1"/><path d="M2302.42 2012.33C2302.42 2018.41 2297.49 2023.33 2291.42 2023.33 2285.34 2023.33 2280.42 2018.41 2280.42 2012.33 2280.42 2006.26 2285.34 2001.33 2291.42 2001.33 2297.49 2001.33 2302.42 2006.26 2302.42 2012.33Z" stroke="#A5A5A5" stroke-width="3.4375" stroke-linecap="butt" stroke-linejoin="round" stroke-miterlimit="10" stroke-opacity="1" fill="#A5A5A5" fill-rule="nonzero" fill-opacity="1"/><path d="M2481.42 1922.33C2481.42 1928.41 2476.49 1933.33 2470.42 1933.33 2464.34 1933.33 2459.42 1928.41 2459.42 1922.33 2459.42 1916.26 2464.34 1911.33 2470.42 1911.33 2476.49 1911.33 2481.42 1916.26 2481.42 1922.33Z" stroke="#A5A5A5" stroke-width="3.4375" stroke-linecap="butt" stroke-linejoin="round" stroke-miterlimit="10" stroke-opacity="1" fill="#A5A5A5" fill-rule="nonzero" fill-opacity="1"/></g><g clip-path="url(#clip9)"><path d="M2113 775.025 2292.08 624.021 2471.08 790.026 2649.09 699.023 2828.09 382 3007.1 556.018 3186.1 684.022 3364.11 895.029 3543.12 1039.03 3722.12 767.025 3901.13 767.025 4080 1311" stroke="#FFC000" stroke-width="10.3125" stroke-linecap="round" stroke-linejoin="round" stroke-miterlimit="10" stroke-opacity="1" fill="none" fill-rule="nonzero"/></g><g clip-path="url(#clip10)"><path d="M2124.42 774.333C2124.42 780.408 2119.49 785.332 2113.42 785.332 2107.34 785.332 2102.42 780.408 2102.42 774.333 2102.42 768.258 2107.34 763.333 2113.42 763.333 2119.49 763.333 2124.42 768.258 2124.42 774.333Z" stroke="#FFC000" stroke-width="3.4375" stroke-linecap="butt" stroke-linejoin="round" stroke-miterlimit="10" stroke-opacity="1" fill="#FFC000" fill-rule="nonzero" fill-opacity="1"/><path d="M2302.42 623.333C2302.42 629.408 2297.49 634.333 2291.42 634.333 2285.34 634.333 2280.42 629.408 2280.42 623.333 2280.42 617.258 2285.34 612.333 2291.42 612.333 2297.49 612.333 2302.42 617.258 2302.42 623.333Z" stroke="#FFC000" stroke-width="3.4375" stroke-linecap="butt" stroke-linejoin="round" stroke-miterlimit="10" stroke-opacity="1" fill="#FFC000" fill-rule="nonzero" fill-opacity="1"/><path d="M2481.42 789.333C2481.42 795.408 2476.49 800.333 2470.42 800.333 2464.34 800.333 2459.42 795.408 2459.42 789.333 2459.42 783.258 2464.34 778.333 2470.42 778.333 2476.49 778.333 2481.42 783.258 2481.42 789.333Z" stroke="#FFC000" stroke-width="3.4375" stroke-linecap="butt" stroke-linejoin="round" stroke-miterlimit="10" stroke-opacity="1" fill="#FFC000" fill-rule="nonzero" fill-opacity="1"/><path d="M2660.42 699.333C2660.42 705.408 2655.49 710.333 2649.42 710.333 2643.34 710.333 2638.42 705.408 2638.42 699.333 2638.42 693.258 2643.34 688.333 2649.42 688.333 2655.49 688.333 2660.42 693.258 2660.42 699.333Z" stroke="#FFC000" stroke-width="3.4375" stroke-linecap="butt" stroke-linejoin="round" stroke-miterlimit="10" stroke-opacity="1" fill="#FFC000" fill-rule="nonzero" fill-opacity="1"/><path d="M2839.42 382.333C2839.42 388.408 2834.49 393.333 2828.42 393.333 2822.34 393.333 2817.42 388.408 2817.42 382.333 2817.42 376.258 2822.34 371.333 2828.42 371.333 2834.49 371.333 2839.42 376.258 2839.42 382.333Z" stroke="#FFC000" stroke-width="3.4375" stroke-linecap="butt" stroke-linejoin="round" stroke-miterlimit="10" stroke-opacity="1" fill="#FFC000" fill-rule="nonzero" fill-opacity="1"/><path d="M3017.42 555.333C3017.42 561.408 3012.49 566.333 3006.42 566.333 3000.34 566.333 2995.42 561.408 2995.42 555.333 2995.42 549.258 3000.34 544.333 3006.42 544.333 3012.49 544.333 3017.42 549.258 3017.42 555.333Z" stroke="#FFC000" stroke-width="3.4375" stroke-linecap="butt" stroke-linejoin="round" stroke-miterlimit="10" stroke-opacity="1" fill="#FFC000" fill-rule="nonzero" fill-opacity="1"/><path d="M3196.42 684.333C3196.42 690.408 3191.49 695.332 3185.42 695.332 3179.34 695.332 3174.42 690.408 3174.42 684.333 3174.42 678.258 3179.34 673.333 3185.42 673.333 3191.49 673.333 3196.42 678.258 3196.42 684.333Z" stroke="#FFC000" stroke-width="3.4375" stroke-linecap="butt" stroke-linejoin="round" stroke-miterlimit="10" stroke-opacity="1" fill="#FFC000" fill-rule="nonzero" fill-opacity="1"/><path d="M3375.42 895.333C3375.42 901.408 3370.49 906.332 3364.42 906.332 3358.34 906.332 3353.42 901.408 3353.42 895.333 3353.42 889.258 3358.34 884.333 3364.42 884.333 3370.49 884.333 3375.42 889.258 3375.42 895.333Z" stroke="#FFC000" stroke-width="3.4375" stroke-linecap="butt" stroke-linejoin="round" stroke-miterlimit="10" stroke-opacity="1" fill="#FFC000" fill-rule="nonzero" fill-opacity="1"/><path d="M3554.42 1038.33C3554.42 1044.41 3549.49 1049.33 3543.42 1049.33 3537.34 1049.33 3532.42 1044.41 3532.42 1038.33 3532.42 1032.26 3537.34 1027.33 3543.42 1027.33 3549.49 1027.33 3554.42 1032.26 3554.42 1038.33Z" stroke="#FFC000" stroke-width="3.4375" stroke-linecap="butt" stroke-linejoin="round" stroke-miterlimit="10" stroke-opacity="1" fill="#FFC000" fill-rule="nonzero" fill-opacity="1"/><path d="M3732.42 767.333C3732.42 773.408 3727.49 778.333 3721.42 778.333 3715.34 778.333 3710.42 773.408 3710.42 767.333 3710.42 761.258 3715.34 756.333 3721.42 756.333 3727.49 756.333 3732.42 761.258 3732.42 767.333Z" stroke="#FFC000" stroke-width="3.4375" stroke-linecap="butt" stroke-linejoin="round" stroke-miterlimit="10" stroke-opacity="1" fill="#FFC000" fill-rule="nonzero" fill-opacity="1"/><path d="M3911.42 767.333C3911.42 773.408 3906.49 778.333 3900.42 778.333 3894.34 778.333 3889.42 773.408 3889.42 767.333 3889.42 761.258 3894.34 756.333 3900.42 756.333 3906.49 756.333 3911.42 761.258 3911.42 767.333Z" stroke="#FFC000" stroke-width="3.4375" stroke-linecap="butt" stroke-linejoin="round" stroke-miterlimit="10" stroke-opacity="1" fill="#FFC000" fill-rule="nonzero" fill-opacity="1"/><path d="M4090.42 1310.33C4090.42 1316.41 4085.49 1321.33 4079.42 1321.33 4073.34 1321.33 4068.42 1316.41 4068.42 1310.33 4068.42 1304.26 4073.34 1299.33 4079.42 1299.33 4085.49 1299.33 4090.42 1304.26 4090.42 1310.33Z" stroke="#FFC000" stroke-width="3.4375" stroke-linecap="butt" stroke-linejoin="round" stroke-miterlimit="10" stroke-opacity="1" fill="#FFC000" fill-rule="nonzero" fill-opacity="1"/></g><g clip-path="url(#clip11)"><text fill="#595959" fill-opacity="1" font-family="Calibri,Calibri_MSFontService,sans-serif" font-style="normal" font-variant="normal" font-weight="400" font-stretch="normal" font-size="41" text-anchor="start" direction="ltr" writing-mode="lr-tb" unicode-bidi="normal" text-decoration="none" transform="matrix(1 0 0 1 1964.51 2159)">0</text></g><g clip-path="url(#clip12)"><text fill="#595959" fill-opacity="1" font-family="Calibri,Calibri_MSFontService,sans-serif" font-style="normal" font-variant="normal" font-weight="400" font-stretch="normal" font-size="41" text-anchor="start" direction="ltr" writing-mode="lr-tb" unicode-bidi="normal" text-decoration="none" transform="matrix(1 0 0 1 1943.61 1781)">50</text></g><g clip-path="url(#clip13)"><text fill="#595959" fill-opacity="1" font-family="Calibri,Calibri_MSFontService,sans-serif" font-style="normal" font-variant="normal" font-weight="400" font-stretch="normal" font-size="41" text-anchor="start" direction="ltr" writing-mode="lr-tb" unicode-bidi="normal" text-decoration="none" transform="matrix(1 0 0 1 1922.71 1404)">100</text></g><g clip-path="url(#clip14)"><text fill="#595959" fill-opacity="1" font-family="Calibri,Calibri_MSFontService,sans-serif" font-style="normal" font-variant="normal" font-weight="400" font-stretch="normal" font-size="41" text-anchor="start" direction="ltr" writing-mode="lr-tb" unicode-bidi="normal" text-decoration="none" transform="matrix(1 0 0 1 1922.71 1026)">150</text></g><g clip-path="url(#clip15)"><text fill="#595959" fill-opacity="1" font-family="Calibri,Calibri_MSFontService,sans-serif" font-style="normal" font-variant="normal" font-weight="400" font-stretch="normal" font-size="41" text-anchor="start" direction="ltr" writing-mode="lr-tb" unicode-bidi="normal" text-decoration="none" transform="matrix(1 0 0 1 1922.71 649)">200</text></g><g clip-path="url(#clip16)"><text fill="#595959" fill-opacity="1" font-family="Calibri,Calibri_MSFontService,sans-serif" font-style="normal" font-variant="normal" font-weight="400" font-stretch="normal" font-size="41" text-anchor="start" direction="ltr" writing-mode="lr-tb" unicode-bidi="normal" text-decoration="none" transform="matrix(1 0 0 1 1922.71 271)">250</text></g><g clip-path="url(#clip17)"><text fill="#595959" fill-opacity="1" font-family="Calibri,Calibri_MSFontService,sans-serif" font-style="normal" font-variant="normal" font-weight="400" font-stretch="normal" font-size="41" text-anchor="start" direction="ltr" writing-mode="lr-tb" unicode-bidi="normal" text-decoration="none" transform="matrix(1 0 0 1 2085.77 2214)">Jan</text></g><g clip-path="url(#clip18)"><text fill="#595959" fill-opacity="1" font-family="Calibri,Calibri_MSFontService,sans-serif" font-style="normal" font-variant="normal" font-weight="400" font-stretch="normal" font-size="41" text-anchor="start" direction="ltr" writing-mode="lr-tb" unicode-bidi="normal" text-decoration="none" transform="matrix(1 0 0 1 2261.25 2214)">Feb</text></g><g clip-path="url(#clip19)"><text fill="#595959" fill-opacity="1" font-family="Calibri,Calibri_MSFontService,sans-serif" font-style="normal" font-variant="normal" font-weight="400" font-stretch="normal" font-size="41" text-anchor="start" direction="ltr" writing-mode="lr-tb" unicode-bidi="normal" text-decoration="none" transform="matrix(1 0 0 1 2435.89 2214)">Mar</text></g><g clip-path="url(#clip20)"><text fill="#595959" fill-opacity="1" font-family="Calibri,Calibri_MSFontService,sans-serif" font-style="normal" font-variant="normal" font-weight="400" font-stretch="normal" font-size="41" text-anchor="start" direction="ltr" writing-mode="lr-tb" unicode-bidi="normal" text-decoration="none" transform="matrix(1 0 0 1 2619.39 2214)">Apr</text></g><g clip-path="url(#clip21)"><text fill="#595959" fill-opacity="1" font-family="Calibri,Calibri_MSFontService,sans-serif" font-style="normal" font-variant="normal" font-weight="400" font-stretch="normal" font-size="41" text-anchor="start" direction="ltr" writing-mode="lr-tb" unicode-bidi="normal" text-decoration="none" transform="matrix(1 0 0 1 2791.29 2214)">May</text></g><g clip-path="url(#clip22)"><text fill="#595959" fill-opacity="1" font-family="Calibri,Calibri_MSFontService,sans-serif" font-style="normal" font-variant="normal" font-weight="400" font-stretch="normal" font-size="41" text-anchor="start" direction="ltr" writing-mode="lr-tb" unicode-bidi="normal" text-decoration="none" transform="matrix(1 0 0 1 2978.65 2214)">Jun</text></g><g clip-path="url(#clip23)"><text fill="#595959" fill-opacity="1" font-family="Calibri,Calibri_MSFontService,sans-serif" font-style="normal" font-variant="normal" font-weight="400" font-stretch="normal" font-size="41" text-anchor="start" direction="ltr" writing-mode="lr-tb" unicode-bidi="normal" text-decoration="none" transform="matrix(1 0 0 1 3163.53 2214)">Jul</text></g><g clip-path="url(#clip24)"><text fill="#595959" fill-opacity="1" font-family="Calibri,Calibri_MSFontService,sans-serif" font-style="normal" font-variant="normal" font-weight="400" font-stretch="normal" font-size="41" text-anchor="start" direction="ltr" writing-mode="lr-tb" unicode-bidi="normal" text-decoration="none" transform="matrix(1 0 0 1 3331.96 2214)">Aug</text></g><g clip-path="url(#clip25)"><text fill="#595959" fill-opacity="1" font-family="Calibri,Calibri_MSFontService,sans-serif" font-style="normal" font-variant="normal" font-weight="400" font-stretch="normal" font-size="41" text-anchor="start" direction="ltr" writing-mode="lr-tb" unicode-bidi="normal" text-decoration="none" transform="matrix(1 0 0 1 3512.63 2214)">Sep</text></g><g clip-path="url(#clip26)"><text fill="#595959" fill-opacity="1" font-family="Calibri,Calibri_MSFontService,sans-serif" font-style="normal" font-variant="normal" font-weight="400" font-stretch="normal" font-size="41" text-anchor="start" direction="ltr" writing-mode="lr-tb" unicode-bidi="normal" text-decoration="none" transform="matrix(1 0 0 1 3692.7 2214)">Oct</text></g><g clip-path="url(#clip27)"><text fill="#595959" fill-opacity="1" font-family="Calibri,Calibri_MSFontService,sans-serif" font-style="normal" font-variant="normal" font-weight="400" font-stretch="normal" font-size="41" text-anchor="start" direction="ltr" writing-mode="lr-tb" unicode-bidi="normal" text-decoration="none" transform="matrix(1 0 0 1 3867.25 2214)">Nov</text></g><g clip-path="url(#clip28)"><text fill="#595959" fill-opacity="1" font-family="Calibri,Calibri_MSFontService,sans-serif" font-style="normal" font-variant="normal" font-weight="400" font-stretch="normal" font-size="41" text-anchor="start" direction="ltr" writing-mode="lr-tb" unicode-bidi="normal" text-decoration="none" transform="matrix(1 0 0 1 4047.85 2214)">Dec</text></g><g clip-path="url(#clip29)"><text fill="#595959" fill-opacity="1" font-family="Calibri,Calibri_MSFontService,sans-serif" font-style="normal" font-variant="normal" font-weight="400" font-stretch="normal" font-size="64" text-anchor="start" direction="ltr" writing-mode="lr-tb" unicode-bidi="normal" text-decoration="none" transform="matrix(1 0 0 1 2798.71 306)">Outcomes Based on Launch Date</text></g><g clip-path="url(#clip30)"><path d="M4241 1119 4329 1119" stroke="#4472C4" stroke-width="10.3125" stroke-linecap="round" stroke-linejoin="round" stroke-miterlimit="10" stroke-opacity="1" fill="none" fill-rule="evenodd"/></g><g clip-path="url(#clip31)"><path d="M4295 1118C4295 1124.07 4290.08 1129 4284 1129 4277.92 1129 4273 1124.07 4273 1118 4273 1111.92 4277.92 1107 4284 1107 4290.08 1107 4295 1111.92 4295 1118Z" stroke="#4472C4" stroke-width="3.4375" stroke-linecap="butt" stroke-linejoin="round" stroke-miterlimit="10" stroke-opacity="1" fill="#4472C4" fill-rule="nonzero" fill-opacity="1"/></g><g clip-path="url(#clip32)"><text fill="#595959" fill-opacity="1" font-family="Calibri,Calibri_MSFontService,sans-serif" font-style="normal" font-variant="normal" font-weight="400" font-stretch="normal" font-size="41" text-anchor="start" direction="ltr" writing-mode="lr-tb" unicode-bidi="normal" text-decoration="none" transform="matrix(1 0 0 1 4337.92 1129)">canceled</text></g><g clip-path="url(#clip33)"><path d="M4241 1196 4329 1196" stroke="#ED7D31" stroke-width="10.3125" stroke-linecap="round" stroke-linejoin="round" stroke-miterlimit="10" stroke-opacity="1" fill="none" fill-rule="evenodd"/></g><g clip-path="url(#clip34)"><path d="M4295 1195C4295 1201.07 4290.08 1206 4284 1206 4277.92 1206 4273 1201.07 4273 1195 4273 1188.92 4277.92 1184 4284 1184 4290.08 1184 4295 1188.92 4295 1195Z" stroke="#ED7D31" stroke-width="3.4375" stroke-linecap="butt" stroke-linejoin="round" stroke-miterlimit="10" stroke-opacity="1" fill="#ED7D31" fill-rule="nonzero" fill-opacity="1"/></g><g clip-path="url(#clip35)"><text fill="#595959" fill-opacity="1" font-family="Calibri,Calibri_MSFontService,sans-serif" font-style="normal" font-variant="normal" font-weight="400" font-stretch="normal" font-size="41" text-anchor="start" direction="ltr" writing-mode="lr-tb" unicode-bidi="normal" text-decoration="none" transform="matrix(1 0 0 1 4337.92 1206)">failed</text></g><g clip-path="url(#clip36)"><path d="M4241 1273 4329 1273" stroke="#A5A5A5" stroke-width="10.3125" stroke-linecap="round" stroke-linejoin="round" stroke-miterlimit="10" stroke-opacity="1" fill="none" fill-rule="evenodd"/></g><g clip-path="url(#clip37)"><path d="M4295 1273C4295 1279.07 4290.08 1284 4284 1284 4277.92 1284 4273 1279.07 4273 1273 4273 1266.92 4277.92 1262 4284 1262 4290.08 1262 4295 1266.92 4295 1273Z" stroke="#A5A5A5" stroke-width="3.4375" stroke-linecap="butt" stroke-linejoin="round" stroke-miterlimit="10" stroke-opacity="1" fill="#A5A5A5" fill-rule="nonzero" fill-opacity="1"/></g><g clip-path="url(#clip38)"><text fill="#595959" fill-opacity="1" font-family="Calibri,Calibri_MSFontService,sans-serif" font-style="normal" font-variant="normal" font-weight="400" font-stretch="normal" font-size="41" text-anchor="start" direction="ltr" writing-mode="lr-tb" unicode-bidi="normal" text-decoration="none" transform="matrix(1 0 0 1 4337.92 1283)">live</text></g><g clip-path="url(#clip39)"><path d="M4241 1351 4329 1351" stroke="#FFC000" stroke-width="10.3125" stroke-linecap="round" stroke-linejoin="round" stroke-miterlimit="10" stroke-opacity="1" fill="none" fill-rule="evenodd"/></g><g clip-path="url(#clip40)"><path d="M4295 1350C4295 1356.07 4290.08 1361 4284 1361 4277.92 1361 4273 1356.07 4273 1350 4273 1343.92 4277.92 1339 4284 1339 4290.08 1339 4295 1343.92 4295 1350Z" stroke="#FFC000" stroke-width="3.4375" stroke-linecap="butt" stroke-linejoin="round" stroke-miterlimit="10" stroke-opacity="1" fill="#FFC000" fill-rule="nonzero" fill-opacity="1"/></g><g clip-path="url(#clip41)"><text fill="#595959" fill-opacity="1" font-family="Calibri,Calibri_MSFontService,sans-serif" font-style="normal" font-variant="normal" font-weight="400" font-stretch="normal" font-size="41" text-anchor="start" direction="ltr" writing-mode="lr-tb" unicode-bidi="normal" text-decoration="none" transform="matrix(1 0 0 1 4337.92 1361)">successful</text></g><rect x="1893.5" y="211.5" width="2667" height="2044" stroke="#D9D9D9" stroke-width="3.4375" stroke-linecap="butt" stroke-linejoin="round" stroke-miterlimit="10" stroke-opacity="1" fill="none"/></g></svg>