<svg width="2997" height="1517" xmlns="http://www.w3.org/2000/svg" xmlns:xlink="http://www.w3.org/1999/xlink" overflow="hidden"><defs><clipPath id="clip0"><rect x="1691" y="1388" width="2997" height="1517"/></clipPath><clipPath id="clip1"><rect x="1695" y="1393" width="2989" height="1508"/></clipPath><clipPath id="clip2"><rect x="1847" y="1443" width="2513" height="1355"/></clipPath><clipPath id="clip3"><rect x="1847" y="1443" width="2513" height="1355"/></clipPath><clipPath id="clip4"><rect x="1847" y="1443" width="2513" height="1355"/></clipPath><clipPath id="clip5"><rect x="1847" y="1443" width="2513" height="1355"/></clipPath><clipPath id="clip6"><rect x="1695" y="1393" width="2989" height="1508"/></clipPath><clipPath id="clip7"><rect x="1695" y="1393" width="2989" height="1508"/></clipPath><clipPath id="clip8"><rect x="1695" y="1393" width="2989" height="1508"/></clipPath><clipPath id="clip9"><rect x="1695" y="1393" width="2989" height="1508"/></clipPath><clipPath id="clip10"><rect x="1695" y="1393" width="2989" height="1508"/></clipPath><clipPath id="clip11"><rect x="1695" y="1393" width="2989" height="1508"/></clipPath><clipPath id="clip12"><rect x="1695" y="1393" width="2989" height="1508"/></clipPath><clipPath id="clip13"><rect x="1695" y="1393" width="2989" height="1508"/></clipPath><clipPath id="clip14"><rect x="1695" y="1393" width="2989" height="1508"/></clipPath><clipPath id="clip15"><rect x="1695" y="1393" width="2989" height="1508"/></clipPath><clipPath id="clip16"><rect x="1695" y="1393" width="2989" height="1508"/></clipPath><clipPath id="clip17"><rect x="1695" y="1393" width="2989" height="1508"/></clipPath><clipPath id="clip18"><rect x="1695" y="1393" width="2989" height="1508"/></clipPath><clipPath id="clip19"><rect x="1695" y="1393" width="2989" height="1508"/></clipPath><clipPath id="clip20"><rect x="1695" y="1393" width="2989" height="1508"/></clipPath><clipPath id="clip21"><rect x="1695" y="1393" width="2989" height="1508"/></clipPath><clipPath id="clip22"><rect x="1695" y="1393" width="2989" height="1508"/></clipPath><clipPath id="clip23"><rect x="1695" y="1393" width="2989" height="1508"/></clipPath><clipPath id="clip24"><rect x="1695" y="1393" width="2989" height="1508"/></clipPath><clipPath id="clip25"><rect x="1695" y="1393" width="2989" height="1508"/></clipPath><clipPath id="clip26"><rect x="1695" y="1393" width="2989" height="1508"/></clipPath><clipPath id="clip27"><rect x="1695" y="1393" width="2989" height="1508"/></clipPath><clipPath id="clip28"><rect x="1695" y="1393" width="2989" height="1508"/></clipPath><clipPath id="clip29"><rect x="1695" y="1393" width="2989" height="1508"/></clipPath><clipPath id="clip30"><rect x="1695" y="1393" width="2989" height="1508"/></clipPath><clipPath id="clip31"><rect x="1695" y="1393" width="2989" height="1508"/></clipPath><clipPath id="clip32"><rect x="1695" y="1393" width="2989" height="1508"/></clipPath><clipPath id="clip33"><rect x="1695" y="1393" width="2989" height="1508"/></clipPath><clipPath id="clip34"><rect x="1695" y="1393" width="2989" height="1508"/></clipPath><clipPath id="clip35"><rect x="1695" y="1393" width="2989" height="1508"/></clipPath></defs><g clip-path="url(#clip0)" transform="translate(-1691 -1388)"><rect x="1696" y="1393" width="2988" height="1508" fill="#FFFFFF" fill-opacity="1"/><g clip-path="url(#clip1)"><path d="M1847.5 2659.59 4357.5 2659.59M1847.5 2524.58 4357.5 2524.58M1847.5 2389.58 4357.5 2389.58M1847.5 2254.57 4357.5 2254.57M1847.5 2119.57 4357.5 2119.57M1847.5 1984.57 4357.5 1984.57M1847.5 1849.56 4357.5 1849.56M1847.5 1713.56 4357.5 1713.56M1847.5 1578.55 4357.5 1578.55M1847.5 1443.5 4357.5 1443.5" stroke="#D9D9D9" stroke-width="3.4375" stroke-linecap="butt" stroke-linejoin="round" stroke-miterlimit="10" stroke-opacity="1" fill="none" fill-rule="nonzero"/></g><g clip-path="url(#clip2)"><path d="M1943.06 2753.09 2031.07 2753.09 2031.07 2795 1943.06 2795ZM2222.07 2775.09 2309.08 2775.09 2309.08 2795 2222.07 2795ZM2780.09 2764.09 2867.09 2764.09 2867.09 2795 2780.09 2795ZM3059.1 2769.09 3146.1 2769.09 3146.1 2795 3059.1 2795ZM3616.12 2765.09 3704.12 2765.09 3704.12 2795 3616.12 2795ZM3895.13 2631.09 3983.13 2631.09 3983.13 2795 3895.13 2795ZM4174.14 2760.09 4261.14 2760.09 4261.14 2795 4174.14 2795Z" fill="#4472C4" fill-rule="nonzero" fill-opacity="1"/></g><g clip-path="url(#clip3)"><path d="M1943.06 2577.08 2031.07 2577.08 2031.07 2753.09 1943.06 2753.09ZM2222.07 2619.09 2309.08 2619.09 2309.08 2775.09 2222.07 2775.09ZM2501.08 2665.09 2588.08 2665.09 2588.08 2795 2501.08 2795ZM3059.1 2621.09 3146.1 2621.09 3146.1 2769.09 3059.1 2769.09ZM3337.11 2698.09 3425.11 2698.09 3425.11 2795 3337.11 2795ZM3616.12 2648.09 3704.12 2648.09 3704.12 2765.09 3616.12 2765.09ZM3895.13 2445.08 3983.13 2445.08 3983.13 2631.09 3895.13 2631.09ZM4174.14 2288.08 4261.14 2288.08 4261.14 2760.09 4174.14 2760.09Z" fill="#ED7D31" fill-rule="nonzero" fill-opacity="1"/></g><g clip-path="url(#clip4)"><path d="M2222.07 2614.09 2309.08 2614.09 2309.08 2619.09 2222.07 2619.09ZM3059.1 2598.09 3146.1 2598.09 3146.1 2621.09 3059.1 2621.09ZM4174.14 2272.07 4261.14 2272.07 4261.14 2288.08 4174.14 2288.08Z" fill="#A5A5A5" fill-rule="nonzero" fill-opacity="1"/></g><g clip-path="url(#clip5)"><path d="M1943.06 2225.07 2031.07 2225.07 2031.07 2577.08 1943.06 2577.08ZM2222.07 2568.08 2309.08 2568.08 2309.08 2614.09 2222.07 2614.09ZM2501.08 2595.09 2588.08 2595.09 2588.08 2665.09 2501.08 2665.09ZM3059.1 1936.06 3146.1 1936.06 3146.1 2598.09 3059.1 2598.09ZM3337.11 2614.09 3425.11 2614.09 3425.11 2698.09 3337.11 2698.09ZM3616.12 2554.08 3704.12 2554.08 3704.12 2648.09 3616.12 2648.09ZM3895.13 2231.07 3983.13 2231.07 3983.13 2445.08 3895.13 2445.08ZM4174.14 1563.05 4261.14 1563.05 4261.14 2272.07 4174.14 2272.07Z" fill="#FFC000" fill-rule="nonzero" fill-opacity="1"/></g><g clip-path="url(#clip6)"><path d="M1847.5 2794.5 4357.5 2794.5" stroke="#D9D9D9" stroke-width="3.4375" stroke-linecap="butt" stroke-linejoin="round" stroke-miterlimit="10" stroke-opacity="1" fill="none" fill-rule="evenodd"/></g><g clip-path="url(#clip7)"><text fill="#595959" fill-opacity="1" font-family="Calibri,Calibri_MSFontService,sans-serif" font-style="normal" font-variant="normal" font-weight="400" font-stretch="normal" font-size="41" text-anchor="start" direction="ltr" writing-mode="lr-tb" unicode-bidi="normal" text-decoration="none" transform="matrix(1 0 0 1 1788.32 2805)">0</text></g><g clip-path="url(#clip8)"><text fill="#595959" fill-opacity="1" font-family="Calibri,Calibri_MSFontService,sans-serif" font-style="normal" font-variant="normal" font-weight="400" font-stretch="normal" font-size="41" text-anchor="start" direction="ltr" writing-mode="lr-tb" unicode-bidi="normal" text-decoration="none" transform="matrix(1 0 0 1 1746.52 2670)">100</text></g><g clip-path="url(#clip9)"><text fill="#595959" fill-opacity="1" font-family="Calibri,Calibri_MSFontService,sans-serif" font-style="normal" font-variant="normal" font-weight="400" font-stretch="normal" font-size="41" text-anchor="start" direction="ltr" writing-mode="lr-tb" unicode-bidi="normal" text-decoration="none" transform="matrix(1 0 0 1 1746.52 2535)">200</text></g><g clip-path="url(#clip10)"><text fill="#595959" fill-opacity="1" font-family="Calibri,Calibri_MSFontService,sans-serif" font-style="normal" font-variant="normal" font-weight="400" font-stretch="normal" font-size="41" text-anchor="start" direction="ltr" writing-mode="lr-tb" unicode-bidi="normal" text-decoration="none" transform="matrix(1 0 0 1 1746.52 2400)">300</text></g><g clip-path="url(#clip11)"><text fill="#595959" fill-opacity="1" font-family="Calibri,Calibri_MSFontService,sans-serif" font-style="normal" font-variant="normal" font-weight="400" font-stretch="normal" font-size="41" text-anchor="start" direction="ltr" writing-mode="lr-tb" unicode-bidi="normal" text-decoration="none" transform="matrix(1 0 0 1 1746.52 2265)">400</text></g><g clip-path="url(#clip12)"><text fill="#595959" fill-opacity="1" font-family="Calibri,Calibri_MSFontService,sans-serif" font-style="normal" font-variant="normal" font-weight="400" font-stretch="normal" font-size="41" text-anchor="start" direction="ltr" writing-mode="lr-tb" unicode-bidi="normal" text-decoration="none" transform="matrix(1 0 0 1 1746.52 2129)">500</text></g><g clip-path="url(#clip13)"><text fill="#595959" fill-opacity="1" font-family="Calibri,Calibri_MSFontService,sans-serif" font-style="normal" font-variant="normal" font-weight="400" font-stretch="normal" font-size="41" text-anchor="start" direction="ltr" writing-mode="lr-tb" unicode-bidi="normal" text-decoration="none" transform="matrix(1 0 0 1 1746.52 1994)">600</text></g><g clip-path="url(#clip14)"><text fill="#595959" fill-opacity="1" font-family="Calibri,Calibri_MSFontService,sans-serif" font-style="normal" font-variant="normal" font-weight="400" font-stretch="normal" font-size="41" text-anchor="start" direction="ltr" writing-mode="lr-tb" unicode-bidi="normal" text-decoration="none" transform="matrix(1 0 0 1 1746.52 1859)">700</text></g><g clip-path="url(#clip15)"><text fill="#595959" fill-opacity="1" font-family="Calibri,Calibri_MSFontService,sans-serif" font-style="normal" font-variant="normal" font-weight="400" font-stretch="normal" font-size="41" text-anchor="start" direction="ltr" writing-mode="lr-tb" unicode-bidi="normal" text-decoration="none" transform="matrix(1 0 0 1 1746.52 1724)">800</text></g><g clip-path="url(#clip16)"><text fill="#595959" fill-opacity="1" font-family="Calibri,Calibri_MSFontService,sans-serif" font-style="normal" font-variant="normal" font-weight="400" font-stretch="normal" font-size="41" text-anchor="start" direction="ltr" writing-mode="lr-tb" unicode-bidi="normal" text-decoration="none" transform="matrix(1 0 0 1 1746.52 1589)">900</text></g><g clip-path="url(#clip17)"><text fill="#595959" fill-opacity="1" font-family="Calibri,Calibri_MSFontService,sans-serif" font-style="normal" font-variant="normal" font-weight="400" font-stretch="normal" font-size="41" text-anchor="start" direction="ltr" writing-mode="lr-tb" unicode-bidi="normal" text-decoration="none" transform="matrix(1 0 0 1 1725.62 1454)">1000</text></g><g clip-path="url(#clip18)"><text fill="#595959" fill-opacity="1" font-family="Calibri,Calibri_MSFontService,sans-serif" font-style="normal" font-variant="normal" font-weight="400" font-stretch="normal" font-size="41" text-anchor="start" direction="ltr" writing-mode="lr-tb" unicode-bidi="normal" text-decoration="none" transform="matrix(1 0 0 1 1885.27 2860)">film &amp; video</text></g><g clip-path="url(#clip19)"><text fill="#595959" fill-opacity="1" font-family="Calibri,Calibri_MSFontService,sans-serif" font-style="normal" font-variant="normal" font-weight="400" font-stretch="normal" font-size="41" text-anchor="start" direction="ltr" writing-mode="lr-tb" unicode-bidi="normal" text-decoration="none" transform="matrix(1 0 0 1 2226.92 2860)">food</text></g><g clip-path="url(#clip20)"><text fill="#595959" fill-opacity="1" font-family="Calibri,Calibri_MSFontService,sans-serif" font-style="normal" font-variant="normal" font-weight="400" font-stretch="normal" font-size="41" text-anchor="start" direction="ltr" writing-mode="lr-tb" unicode-bidi="normal" text-decoration="none" transform="matrix(1 0 0 1 2490.28 2860)">games</text></g><g clip-path="url(#clip21)"><text fill="#595959" fill-opacity="1" font-family="Calibri,Calibri_MSFontService,sans-serif" font-style="normal" font-variant="normal" font-weight="400" font-stretch="normal" font-size="41" text-anchor="start" direction="ltr" writing-mode="lr-tb" unicode-bidi="normal" text-decoration="none" transform="matrix(1 0 0 1 2734.97 2860)">journalism</text></g><g clip-path="url(#clip22)"><text fill="#595959" fill-opacity="1" font-family="Calibri,Calibri_MSFontService,sans-serif" font-style="normal" font-variant="normal" font-weight="400" font-stretch="normal" font-size="41" text-anchor="start" direction="ltr" writing-mode="lr-tb" unicode-bidi="normal" text-decoration="none" transform="matrix(1 0 0 1 3053.58 2860)">music</text></g><g clip-path="url(#clip23)"><text fill="#595959" fill-opacity="1" font-family="Calibri,Calibri_MSFontService,sans-serif" font-style="normal" font-variant="normal" font-weight="400" font-stretch="normal" font-size="41" text-anchor="start" direction="ltr" writing-mode="lr-tb" unicode-bidi="normal" text-decoration="none" transform="matrix(1 0 0 1 3273.16 2860)">photography</text></g><g clip-path="url(#clip24)"><text fill="#595959" fill-opacity="1" font-family="Calibri,Calibri_MSFontService,sans-serif" font-style="normal" font-variant="normal" font-weight="400" font-stretch="normal" font-size="41" text-anchor="start" direction="ltr" writing-mode="lr-tb" unicode-bidi="normal" text-decoration="none" transform="matrix(1 0 0 1 3574 2860)">publishing</text></g><g clip-path="url(#clip25)"><text fill="#595959" fill-opacity="1" font-family="Calibri,Calibri_MSFontService,sans-serif" font-style="normal" font-variant="normal" font-weight="400" font-stretch="normal" font-size="41" text-anchor="start" direction="ltr" writing-mode="lr-tb" unicode-bidi="normal" text-decoration="none" transform="matrix(1 0 0 1 3845.94 2860)">technology</text></g><g clip-path="url(#clip26)"><text fill="#595959" fill-opacity="1" font-family="Calibri,Calibri_MSFontService,sans-serif" font-style="normal" font-variant="normal" font-weight="400" font-stretch="normal" font-size="41" text-anchor="start" direction="ltr" writing-mode="lr-tb" unicode-bidi="normal" text-decoration="none" transform="matrix(1 0 0 1 4155.64 2860)">theater</text></g><g clip-path="url(#clip27)"><text fill="#595959" fill-opacity="1" font-family="Calibri,Calibri_MSFontService,sans-serif" font-style="normal" font-variant="normal" font-weight="400" font-stretch="normal" font-size="64" text-anchor="start" direction="ltr" writing-mode="lr-tb" unicode-bidi="normal" text-decoration="none" transform="matrix(1 0 0 1 2841.18 1489)">Parent Category Outcomes</text></g><g clip-path="url(#clip28)"><rect x="4429" y="2022" width="23" height="22" fill="#FFC000" fill-opacity="1"/></g><g clip-path="url(#clip29)"><text fill="#595959" fill-opacity="1" font-family="Calibri,Calibri_MSFontService,sans-serif" font-style="normal" font-variant="normal" font-weight="400" font-stretch="normal" font-size="41" text-anchor="start" direction="ltr" writing-mode="lr-tb" unicode-bidi="normal" text-decoration="none" transform="matrix(1 0 0 1 4461.67 2043)">successful</text></g><g clip-path="url(#clip30)"><rect x="4429" y="2099" width="23" height="23" fill="#A5A5A5" fill-opacity="1"/></g><g clip-path="url(#clip31)"><text fill="#595959" fill-opacity="1" font-family="Calibri,Calibri_MSFontService,sans-serif" font-style="normal" font-variant="normal" font-weight="400" font-stretch="normal" font-size="41" text-anchor="start" direction="ltr" writing-mode="lr-tb" unicode-bidi="normal" text-decoration="none" transform="matrix(1 0 0 1 4461.67 2120)">live</text></g><g clip-path="url(#clip32)"><rect x="4429" y="2176" width="23" height="23" fill="#ED7D31" fill-opacity="1"/></g><g clip-path="url(#clip33)"><text fill="#595959" fill-opacity="1" font-family="Calibri,Calibri_MSFontService,sans-serif" font-style="normal" font-variant="normal" font-weight="400" font-stretch="normal" font-size="41" text-anchor="start" direction="ltr" writing-mode="lr-tb" unicode-bidi="normal" text-decoration="none" transform="matrix(1 0 0 1 4461.67 2198)">failed</text></g><g clip-path="url(#clip34)"><rect x="4429" y="2254" width="23" height="22" fill="#4472C4" fill-opacity="1"/></g><g clip-path="url(#clip35)"><text fill="#595959" fill-opacity="1" font-family="Calibri,Calibri_MSFontService,sans-serif" font-style="normal" font-variant="normal" font-weight="400" font-stretch="normal" font-size="41" text-anchor="start" direction="ltr" writing-mode="lr-tb" unicode-bidi="normal" text-decoration="none" transform="matrix(1 0 0 1 4461.67 2275)">canceled</text></g><rect x="1696.5" y="1393.5" width="2988" height="1508" stroke="#D9D9D9" stroke-width="3.4375" stroke-linecap="butt" stroke-linejoin="round" stroke-miterlimit="10" stroke-opacity="1" fill="none"/></g></svg>