<svg width="3493" height="2342" xmlns="http://www.w3.org/2000/svg" xmlns:xlink="http://www.w3.org/1999/xlink" overflow="hidden"><defs><clipPath id="clip0"><rect x="1860" y="609" width="3493" height="2342"/></clipPath><clipPath id="clip1"><rect x="1865" y="614" width="3483" height="2333"/></clipPath><clipPath id="clip2"><rect x="1996" y="664" width="3029" height="1984"/></clipPath><clipPath id="clip3"><rect x="1996" y="664" width="3029" height="1984"/></clipPath><clipPath id="clip4"><rect x="1996" y="664" width="3029" height="1984"/></clipPath><clipPath id="clip5"><rect x="1996" y="664" width="3029" height="1984"/></clipPath><clipPath id="clip6"><rect x="1865" y="614" width="3483" height="2333"/></clipPath><clipPath id="clip7"><rect x="1865" y="614" width="3483" height="2333"/></clipPath><clipPath id="clip8"><rect x="1865" y="614" width="3483" height="2333"/></clipPath><clipPath id="clip9"><rect x="1865" y="614" width="3483" height="2333"/></clipPath><clipPath id="clip10"><rect x="1865" y="614" width="3483" height="2333"/></clipPath><clipPath id="clip11"><rect x="1865" y="614" width="3483" height="2333"/></clipPath><clipPath id="clip12"><rect x="1865" y="614" width="3483" height="2333"/></clipPath><clipPath id="clip13"><rect x="1865" y="614" width="3483" height="2333"/></clipPath><clipPath id="clip14"><rect x="1865" y="614" width="3483" height="2333"/></clipPath><clipPath id="clip15"><rect x="1865" y="614" width="3483" height="2333"/></clipPath><clipPath id="clip16"><rect x="1865" y="614" width="3483" height="2333"/></clipPath><clipPath id="clip17"><rect x="1865" y="614" width="3483" height="2333"/></clipPath><clipPath id="clip18"><rect x="1865" y="614" width="3483" height="2333"/></clipPath><clipPath id="clip19"><rect x="1865" y="614" width="3483" height="2333"/></clipPath><clipPath id="clip20"><rect x="1865" y="614" width="3483" height="2333"/></clipPath><clipPath id="clip21"><rect x="1865" y="614" width="3483" height="2333"/></clipPath><clipPath id="clip22"><rect x="1865" y="614" width="3483" height="2333"/></clipPath><clipPath id="clip23"><rect x="1865" y="614" width="3483" height="2333"/></clipPath><clipPath id="clip24"><rect x="1865" y="614" width="3483" height="2333"/></clipPath><clipPath id="clip25"><rect x="1865" y="614" width="3483" height="2333"/></clipPath><clipPath id="clip26"><rect x="1865" y="614" width="3483" height="2333"/></clipPath><clipPath id="clip27"><rect x="1865" y="614" width="3483" height="2333"/></clipPath><clipPath id="clip28"><rect x="1865" y="614" width="3483" height="2333"/></clipPath><clipPath id="clip29"><rect x="1865" y="614" width="3483" height="2333"/></clipPath><clipPath id="clip30"><rect x="1865" y="614" width="3483" height="2333"/></clipPath><clipPath id="clip31"><rect x="1865" y="614" width="3483" height="2333"/></clipPath><clipPath id="clip32"><rect x="1865" y="614" width="3483" height="2333"/></clipPath><clipPath id="clip33"><rect x="1865" y="614" width="3483" height="2333"/></clipPath><clipPath id="clip34"><rect x="1865" y="614" width="3483" height="2333"/></clipPath><clipPath id="clip35"><rect x="1865" y="614" width="3483" height="2333"/></clipPath><clipPath id="clip36"><rect x="1865" y="614" width="3483" height="2333"/></clipPath><clipPath id="clip37"><rect x="1865" y="614" width="3483" height="2333"/></clipPath><clipPath id="clip38"><rect x="1865" y="614" width="3483" height="2333"/></clipPath><clipPath id="clip39"><rect x="1865" y="614" width="3483" height="2333"/></clipPath><clipPath id="clip40"><rect x="1865" y="614" width="3483" height="2333"/></clipPath><clipPath id="clip41"><rect x="1865" y="614" width="3483" height="2333"/></clipPath><clipPath id="clip42"><rect x="1865" y="614" width="3483" height="2333"/></clipPath><clipPath id="clip43"><rect x="1865" y="614" width="3483" height="2333"/></clipPath><clipPath id="clip44"><rect x="1865" y="614" width="3483" height="2333"/></clipPath><clipPath id="clip45"><rect x="1865" y="614" width="3483" height="2333"/></clipPath><clipPath id="clip46"><rect x="1865" y="614" width="3483" height="2333"/></clipPath><clipPath id="clip47"><rect x="1865" y="614" width="3483" height="2333"/></clipPath><clipPath id="clip48"><rect x="1865" y="614" width="3483" height="2333"/></clipPath><clipPath id="clip49"><rect x="1865" y="614" width="3483" height="2333"/></clipPath><clipPath id="clip50"><rect x="1865" y="614" width="3483" height="2333"/></clipPath><clipPath id="clip51"><rect x="1865" y="614" width="3483" height="2333"/></clipPath><clipPath id="clip52"><rect x="1865" y="614" width="3483" height="2333"/></clipPath><clipPath id="clip53"><rect x="1865" y="614" width="3483" height="2333"/></clipPath><clipPath id="clip54"><rect x="1865" y="614" width="3483" height="2333"/></clipPath><clipPath id="clip55"><rect x="1865" y="614" width="3483" height="2333"/></clipPath><clipPath id="clip56"><rect x="1865" y="614" width="3483" height="2333"/></clipPath><clipPath id="clip57"><rect x="1865" y="614" width="3483" height="2333"/></clipPath><clipPath id="clip58"><rect x="1865" y="614" width="3483" height="2333"/></clipPath><clipPath id="clip59"><rect x="1865" y="614" width="3483" height="2333"/></clipPath><clipPath id="clip60"><rect x="1865" y="614" width="3483" height="2333"/></clipPath></defs><g clip-path="url(#clip0)" transform="translate(-1860 -609)"><rect x="1865" y="614" width="3484" height="2333" fill="#FFFFFF" fill-opacity="1"/><g clip-path="url(#clip1)"><path d="M1996.5 2362.58 5021.5 2362.58M1996.5 2079.57 5021.5 2079.57M1996.5 1796.56 5021.5 1796.56M1996.5 1513.55 5021.5 1513.55M1996.5 1230.54 5021.5 1230.54M1996.5 947.531 5021.5 947.531M1996.5 664.5 5021.5 664.5" stroke="#D9D9D9" stroke-width="3.4375" stroke-linecap="butt" stroke-linejoin="round" stroke-miterlimit="10" stroke-opacity="1" fill="none" fill-rule="nonzero"/></g><g clip-path="url(#clip2)"><path d="M2106.07 2628.09 2132.07 2628.09 2132.07 2645 2106.07 2645ZM2760.09 2640.09 2786.09 2640.09 2786.09 2645 2760.09 2645ZM3251.11 2617.09 3276.11 2617.09 3276.11 2645 3251.11 2645ZM4069.13 2634.09 4094.13 2634.09 4094.13 2645 4069.13 2645ZM4396.14 2640.09 4421.15 2640.09 4421.15 2645 4396.14 2645ZM4805.16 2617.09 4830.16 2617.09 4830.16 2645 4805.16 2645ZM4886.16 2606.09 4912.16 2606.09 4912.16 2645 4886.16 2645ZM4968.16 2640.09 4994.16 2640.09 4994.16 2645 4968.16 2645Z" fill="#4472C4" fill-rule="nonzero" fill-opacity="1"/></g><g clip-path="url(#clip3)"><path d="M2024.07 2566.08 2050.07 2566.08 2050.07 2645 2024.07 2645ZM2188.07 2634.09 2213.07 2634.09 2213.07 2645 2188.07 2645ZM2433.08 2555.08 2459.08 2555.08 2459.08 2645 2433.08 2645ZM2597.09 2640.09 2622.09 2640.09 2622.09 2645 2597.09 2645ZM2678.09 2634.09 2704.09 2634.09 2704.09 2645 2678.09 2645ZM2760.09 2611.09 2786.09 2611.09 2786.09 2640.09 2760.09 2640.09ZM2842.09 2628.09 2868.09 2628.09 2868.09 2645 2842.09 2645ZM3005.1 2611.09 3031.1 2611.09 3031.1 2645 3005.1 2645ZM3169.1 2606.09 3195.1 2606.09 3195.1 2645 3169.1 2645ZM3251.11 2555.08 3276.11 2555.08 3276.11 2617.09 3251.11 2617.09ZM3333.11 2628.09 3358.11 2628.09 3358.11 2645 3333.11 2645ZM3496.11 2617.09 3522.12 2617.09 3522.12 2645 3496.11 2645ZM3578.12 2566.08 3604.12 2566.08 3604.12 2645 3578.12 2645ZM3660.12 2617.09 3685.12 2617.09 3685.12 2645 3660.12 2645ZM3741.12 2249.07 3767.12 2249.07 3767.12 2645 3741.12 2645ZM3905.13 2628.09 3931.13 2628.09 3931.13 2645 3905.13 2645ZM4396.14 2594.09 4421.15 2594.09 4421.15 2640.09 4396.14 2640.09ZM4641.15 2623.09 4667.15 2623.09 4667.15 2645 4641.15 2645ZM4723.15 2589.08 4748.16 2589.08 4748.16 2645 4723.15 2645ZM4805.16 2583.08 4830.16 2583.08 4830.16 2617.09 4805.16 2617.09ZM4886.16 2549.08 4912.16 2549.08 4912.16 2606.09 4886.16 2606.09Z" fill="#ED7D31" fill-rule="nonzero" fill-opacity="1"/></g><g clip-path="url(#clip4)"><path d="M2597.09 2634.09 2622.09 2634.09 2622.09 2640.09 2597.09 2640.09ZM3741.12 2215.07 3767.12 2215.07 3767.12 2249.07 3741.12 2249.07ZM4232.14 2640.09 4258.14 2640.09 4258.14 2645 4232.14 2645Z" fill="#A5A5A5" fill-rule="nonzero" fill-opacity="1"/></g><g clip-path="url(#clip5)"><path d="M2270.07 2617.09 2295.08 2617.09 2295.08 2645 2270.07 2645ZM2351.08 2600.09 2377.08 2600.09 2377.08 2645 2351.08 2645ZM2515.08 2611.09 2540.08 2611.09 2540.08 2645 2515.08 2645ZM2924.1 2538.08 2949.1 2538.08 2949.1 2645 2924.1 2645ZM3087.1 2634.09 3113.1 2634.09 3113.1 2645 3087.1 2645ZM3251.11 2498.08 3276.11 2498.08 3276.11 2555.08 3251.11 2555.08ZM3414.11 2611.09 3440.11 2611.09 3440.11 2645 3414.11 2645ZM3578.12 2464.08 3604.12 2464.08 3604.12 2566.08 3578.12 2566.08ZM3741.12 868.029 3767.12 868.029 3767.12 2215.07 3741.12 2215.07ZM3823.13 2634.09 3849.13 2634.09 3849.13 2645 3823.13 2645ZM3987.13 2589.08 4012.13 2589.08 4012.13 2645 3987.13 2645ZM4150.14 2611.09 4176.14 2611.09 4176.14 2645 4150.14 2645ZM4314.14 2628.09 4339.14 2628.09 4339.14 2645 4314.14 2645ZM4396.14 2538.08 4421.15 2538.08 4421.15 2594.09 4396.14 2594.09ZM4477.15 2555.08 4503.15 2555.08 4503.15 2645 4477.15 2645ZM4559.15 2606.09 4585.15 2606.09 4585.15 2645 4559.15 2645Z" fill="#FFC000" fill-rule="nonzero" fill-opacity="1"/></g><g clip-path="url(#clip6)"><path d="M1996.5 2645.5 5021.5 2645.5" stroke="#D9D9D9" stroke-width="3.4375" stroke-linecap="butt" stroke-linejoin="round" stroke-miterlimit="10" stroke-opacity="1" fill="none" fill-rule="evenodd"/></g><g clip-path="url(#clip7)"><text fill="#595959" fill-opacity="1" font-family="Calibri,Calibri_MSFontService,sans-serif" font-style="normal" font-variant="normal" font-weight="400" font-stretch="normal" font-size="41" text-anchor="start" direction="ltr" writing-mode="lr-tb" unicode-bidi="normal" text-decoration="none" transform="matrix(1 0 0 1 1937.01 2656)">0</text></g><g clip-path="url(#clip8)"><text fill="#595959" fill-opacity="1" font-family="Calibri,Calibri_MSFontService,sans-serif" font-style="normal" font-variant="normal" font-weight="400" font-stretch="normal" font-size="41" text-anchor="start" direction="ltr" writing-mode="lr-tb" unicode-bidi="normal" text-decoration="none" transform="matrix(1 0 0 1 1916.11 2373)">50</text></g><g clip-path="url(#clip9)"><text fill="#595959" fill-opacity="1" font-family="Calibri,Calibri_MSFontService,sans-serif" font-style="normal" font-variant="normal" font-weight="400" font-stretch="normal" font-size="41" text-anchor="start" direction="ltr" writing-mode="lr-tb" unicode-bidi="normal" text-decoration="none" transform="matrix(1 0 0 1 1895.21 2090)">100</text></g><g clip-path="url(#clip10)"><text fill="#595959" fill-opacity="1" font-family="Calibri,Calibri_MSFontService,sans-serif" font-style="normal" font-variant="normal" font-weight="400" font-stretch="normal" font-size="41" text-anchor="start" direction="ltr" writing-mode="lr-tb" unicode-bidi="normal" text-decoration="none" transform="matrix(1 0 0 1 1895.21 1807)">150</text></g><g clip-path="url(#clip11)"><text fill="#595959" fill-opacity="1" font-family="Calibri,Calibri_MSFontService,sans-serif" font-style="normal" font-variant="normal" font-weight="400" font-stretch="normal" font-size="41" text-anchor="start" direction="ltr" writing-mode="lr-tb" unicode-bidi="normal" text-decoration="none" transform="matrix(1 0 0 1 1895.21 1524)">200</text></g><g clip-path="url(#clip12)"><text fill="#595959" fill-opacity="1" font-family="Calibri,Calibri_MSFontService,sans-serif" font-style="normal" font-variant="normal" font-weight="400" font-stretch="normal" font-size="41" text-anchor="start" direction="ltr" writing-mode="lr-tb" unicode-bidi="normal" text-decoration="none" transform="matrix(1 0 0 1 1895.21 1241)">250</text></g><g clip-path="url(#clip13)"><text fill="#595959" fill-opacity="1" font-family="Calibri,Calibri_MSFontService,sans-serif" font-style="normal" font-variant="normal" font-weight="400" font-stretch="normal" font-size="41" text-anchor="start" direction="ltr" writing-mode="lr-tb" unicode-bidi="normal" text-decoration="none" transform="matrix(1 0 0 1 1895.21 958)">300</text></g><g clip-path="url(#clip14)"><text fill="#595959" fill-opacity="1" font-family="Calibri,Calibri_MSFontService,sans-serif" font-style="normal" font-variant="normal" font-weight="400" font-stretch="normal" font-size="41" text-anchor="start" direction="ltr" writing-mode="lr-tb" unicode-bidi="normal" text-decoration="none" transform="matrix(1 0 0 1 1895.21 675)">350</text></g><g clip-path="url(#clip15)"><text fill="#595959" fill-opacity="1" font-family="Calibri,Calibri_MSFontService,sans-serif" font-style="normal" font-variant="normal" font-weight="400" font-stretch="normal" font-size="41" text-anchor="start" direction="ltr" writing-mode="lr-tb" unicode-bidi="normal" text-decoration="none" transform="matrix(0.707107 -0.707107 0.707107 0.707107 1926.41 2820)">animation</text></g><g clip-path="url(#clip16)"><text fill="#595959" fill-opacity="1" font-family="Calibri,Calibri_MSFontService,sans-serif" font-style="normal" font-variant="normal" font-weight="400" font-stretch="normal" font-size="41" text-anchor="start" direction="ltr" writing-mode="lr-tb" unicode-bidi="normal" text-decoration="none" transform="matrix(0.707107 -0.707107 0.707107 0.707107 2017.36 2811)">art books</text></g><g clip-path="url(#clip17)"><text fill="#595959" fill-opacity="1" font-family="Calibri,Calibri_MSFontService,sans-serif" font-style="normal" font-variant="normal" font-weight="400" font-stretch="normal" font-size="41" text-anchor="start" direction="ltr" writing-mode="lr-tb" unicode-bidi="normal" text-decoration="none" transform="matrix(0.707107 -0.707107 0.707107 0.707107 2018.81 2891)">children's books</text></g><g clip-path="url(#clip18)"><text fill="#595959" fill-opacity="1" font-family="Calibri,Calibri_MSFontService,sans-serif" font-style="normal" font-variant="normal" font-weight="400" font-stretch="normal" font-size="41" text-anchor="start" direction="ltr" writing-mode="lr-tb" unicode-bidi="normal" text-decoration="none" transform="matrix(0.707107 -0.707107 0.707107 0.707107 2121.02 2870)">classical music</text></g><g clip-path="url(#clip19)"><text fill="#595959" fill-opacity="1" font-family="Calibri,Calibri_MSFontService,sans-serif" font-style="normal" font-variant="normal" font-weight="400" font-stretch="normal" font-size="41" text-anchor="start" direction="ltr" writing-mode="lr-tb" unicode-bidi="normal" text-decoration="none" transform="matrix(0.707107 -0.707107 0.707107 0.707107 2215.31 2858)">documentary</text></g><g clip-path="url(#clip20)"><text fill="#595959" fill-opacity="1" font-family="Calibri,Calibri_MSFontService,sans-serif" font-style="normal" font-variant="normal" font-weight="400" font-stretch="normal" font-size="41" text-anchor="start" direction="ltr" writing-mode="lr-tb" unicode-bidi="normal" text-decoration="none" transform="matrix(0.707107 -0.707107 0.707107 0.707107 2378.98 2776)">drama</text></g><g clip-path="url(#clip21)"><text fill="#595959" fill-opacity="1" font-family="Calibri,Calibri_MSFontService,sans-serif" font-style="normal" font-variant="normal" font-weight="400" font-stretch="normal" font-size="41" text-anchor="start" direction="ltr" writing-mode="lr-tb" unicode-bidi="normal" text-decoration="none" transform="matrix(0.707107 -0.707107 0.707107 0.707107 2344.1 2893)">electronic music</text></g><g clip-path="url(#clip22)"><text fill="#595959" fill-opacity="1" font-family="Calibri,Calibri_MSFontService,sans-serif" font-style="normal" font-variant="normal" font-weight="400" font-stretch="normal" font-size="41" text-anchor="start" direction="ltr" writing-mode="lr-tb" unicode-bidi="normal" text-decoration="none" transform="matrix(0.707107 -0.707107 0.707107 0.707107 2564.62 2754)">faith</text></g><g clip-path="url(#clip23)"><text fill="#595959" fill-opacity="1" font-family="Calibri,Calibri_MSFontService,sans-serif" font-style="normal" font-variant="normal" font-weight="400" font-stretch="normal" font-size="41" text-anchor="start" direction="ltr" writing-mode="lr-tb" unicode-bidi="normal" text-decoration="none" transform="matrix(0.707107 -0.707107 0.707107 0.707107 2625.96 2774)">fiction</text></g><g clip-path="url(#clip24)"><text fill="#595959" fill-opacity="1" font-family="Calibri,Calibri_MSFontService,sans-serif" font-style="normal" font-variant="normal" font-weight="400" font-stretch="normal" font-size="41" text-anchor="start" direction="ltr" writing-mode="lr-tb" unicode-bidi="normal" text-decoration="none" transform="matrix(0.707107 -0.707107 0.707107 0.707107 2648.98 2833)">food trucks</text></g><g clip-path="url(#clip25)"><text fill="#595959" fill-opacity="1" font-family="Calibri,Calibri_MSFontService,sans-serif" font-style="normal" font-variant="normal" font-weight="400" font-stretch="normal" font-size="41" text-anchor="start" direction="ltr" writing-mode="lr-tb" unicode-bidi="normal" text-decoration="none" transform="matrix(0.707107 -0.707107 0.707107 0.707107 2772.16 2792)">gadgets</text></g><g clip-path="url(#clip26)"><text fill="#595959" fill-opacity="1" font-family="Calibri,Calibri_MSFontService,sans-serif" font-style="normal" font-variant="normal" font-weight="400" font-stretch="normal" font-size="41" text-anchor="start" direction="ltr" writing-mode="lr-tb" unicode-bidi="normal" text-decoration="none" transform="matrix(0.707107 -0.707107 0.707107 0.707107 2832.07 2814)">hardware</text></g><g clip-path="url(#clip27)"><text fill="#595959" fill-opacity="1" font-family="Calibri,Calibri_MSFontService,sans-serif" font-style="normal" font-variant="normal" font-weight="400" font-stretch="normal" font-size="41" text-anchor="start" direction="ltr" writing-mode="lr-tb" unicode-bidi="normal" text-decoration="none" transform="matrix(0.707107 -0.707107 0.707107 0.707107 2984.17 2743)">jazz</text></g><g clip-path="url(#clip28)"><text fill="#595959" fill-opacity="1" font-family="Calibri,Calibri_MSFontService,sans-serif" font-style="normal" font-variant="normal" font-weight="400" font-stretch="normal" font-size="41" text-anchor="start" direction="ltr" writing-mode="lr-tb" unicode-bidi="normal" text-decoration="none" transform="matrix(0.707107 -0.707107 0.707107 0.707107 3041.69 2767)">metal</text></g><g clip-path="url(#clip29)"><text fill="#595959" fill-opacity="1" font-family="Calibri,Calibri_MSFontService,sans-serif" font-style="normal" font-variant="normal" font-weight="400" font-stretch="normal" font-size="41" text-anchor="start" direction="ltr" writing-mode="lr-tb" unicode-bidi="normal" text-decoration="none" transform="matrix(0.707107 -0.707107 0.707107 0.707107 3026.29 2865)">mobile games</text></g><g clip-path="url(#clip30)"><text fill="#595959" fill-opacity="1" font-family="Calibri,Calibri_MSFontService,sans-serif" font-style="normal" font-variant="normal" font-weight="400" font-stretch="normal" font-size="41" text-anchor="start" direction="ltr" writing-mode="lr-tb" unicode-bidi="normal" text-decoration="none" transform="matrix(0.707107 -0.707107 0.707107 0.707107 3183.77 2789)">musical</text></g><g clip-path="url(#clip31)"><text fill="#595959" fill-opacity="1" font-family="Calibri,Calibri_MSFontService,sans-serif" font-style="normal" font-variant="normal" font-weight="400" font-stretch="normal" font-size="41" text-anchor="start" direction="ltr" writing-mode="lr-tb" unicode-bidi="normal" text-decoration="none" transform="matrix(0.707107 -0.707107 0.707107 0.707107 3276.18 2778)">nature</text></g><g clip-path="url(#clip32)"><text fill="#595959" fill-opacity="1" font-family="Calibri,Calibri_MSFontService,sans-serif" font-style="normal" font-variant="normal" font-weight="400" font-stretch="normal" font-size="41" text-anchor="start" direction="ltr" writing-mode="lr-tb" unicode-bidi="normal" text-decoration="none" transform="matrix(0.707107 -0.707107 0.707107 0.707107 3315.92 2820)">nonfiction</text></g><g clip-path="url(#clip33)"><text fill="#595959" fill-opacity="1" font-family="Calibri,Calibri_MSFontService,sans-serif" font-style="normal" font-variant="normal" font-weight="400" font-stretch="normal" font-size="41" text-anchor="start" direction="ltr" writing-mode="lr-tb" unicode-bidi="normal" text-decoration="none" transform="matrix(0.707107 -0.707107 0.707107 0.707107 3437.06 2781)">people</text></g><g clip-path="url(#clip34)"><text fill="#595959" fill-opacity="1" font-family="Calibri,Calibri_MSFontService,sans-serif" font-style="normal" font-variant="normal" font-weight="400" font-stretch="normal" font-size="41" text-anchor="start" direction="ltr" writing-mode="lr-tb" unicode-bidi="normal" text-decoration="none" transform="matrix(0.707107 -0.707107 0.707107 0.707107 3458.67 2841)">photobooks</text></g><g clip-path="url(#clip35)"><text fill="#595959" fill-opacity="1" font-family="Calibri,Calibri_MSFontService,sans-serif" font-style="normal" font-variant="normal" font-weight="400" font-stretch="normal" font-size="41" text-anchor="start" direction="ltr" writing-mode="lr-tb" unicode-bidi="normal" text-decoration="none" transform="matrix(0.707107 -0.707107 0.707107 0.707107 3608.13 2773)">places</text></g><g clip-path="url(#clip36)"><text fill="#595959" fill-opacity="1" font-family="Calibri,Calibri_MSFontService,sans-serif" font-style="normal" font-variant="normal" font-weight="400" font-stretch="normal" font-size="41" text-anchor="start" direction="ltr" writing-mode="lr-tb" unicode-bidi="normal" text-decoration="none" transform="matrix(0.707107 -0.707107 0.707107 0.707107 3703.55 2760)">plays</text></g><g clip-path="url(#clip37)"><text fill="#595959" fill-opacity="1" font-family="Calibri,Calibri_MSFontService,sans-serif" font-style="normal" font-variant="normal" font-weight="400" font-stretch="normal" font-size="41" text-anchor="start" direction="ltr" writing-mode="lr-tb" unicode-bidi="normal" text-decoration="none" transform="matrix(0.707107 -0.707107 0.707107 0.707107 3799.9 2745)">pop</text></g><g clip-path="url(#clip38)"><text fill="#595959" fill-opacity="1" font-family="Calibri,Calibri_MSFontService,sans-serif" font-style="normal" font-variant="normal" font-weight="400" font-stretch="normal" font-size="41" text-anchor="start" direction="ltr" writing-mode="lr-tb" unicode-bidi="normal" text-decoration="none" transform="matrix(0.707107 -0.707107 0.707107 0.707107 3791.89 2835)">restaurants</text></g><g clip-path="url(#clip39)"><text fill="#595959" fill-opacity="1" font-family="Calibri,Calibri_MSFontService,sans-serif" font-style="normal" font-variant="normal" font-weight="400" font-stretch="normal" font-size="41" text-anchor="start" direction="ltr" writing-mode="lr-tb" unicode-bidi="normal" text-decoration="none" transform="matrix(0.707107 -0.707107 0.707107 0.707107 3958.35 2750)">rock</text></g><g clip-path="url(#clip40)"><text fill="#595959" fill-opacity="1" font-family="Calibri,Calibri_MSFontService,sans-serif" font-style="normal" font-variant="normal" font-weight="400" font-stretch="normal" font-size="41" text-anchor="start" direction="ltr" writing-mode="lr-tb" unicode-bidi="normal" text-decoration="none" transform="matrix(0.707107 -0.707107 0.707107 0.707107 3922.45 2868)">science fiction</text></g><g clip-path="url(#clip41)"><text fill="#595959" fill-opacity="1" font-family="Calibri,Calibri_MSFontService,sans-serif" font-style="normal" font-variant="normal" font-weight="400" font-stretch="normal" font-size="41" text-anchor="start" direction="ltr" writing-mode="lr-tb" unicode-bidi="normal" text-decoration="none" transform="matrix(0.707107 -0.707107 0.707107 0.707107 4099.57 2773)">shorts</text></g><g clip-path="url(#clip42)"><text fill="#595959" fill-opacity="1" font-family="Calibri,Calibri_MSFontService,sans-serif" font-style="normal" font-variant="normal" font-weight="400" font-stretch="normal" font-size="41" text-anchor="start" direction="ltr" writing-mode="lr-tb" unicode-bidi="normal" text-decoration="none" transform="matrix(0.707107 -0.707107 0.707107 0.707107 4119.43 2835)">small batch</text></g><g clip-path="url(#clip43)"><text fill="#595959" fill-opacity="1" font-family="Calibri,Calibri_MSFontService,sans-serif" font-style="normal" font-variant="normal" font-weight="400" font-stretch="normal" font-size="41" text-anchor="start" direction="ltr" writing-mode="lr-tb" unicode-bidi="normal" text-decoration="none" transform="matrix(0.707107 -0.707107 0.707107 0.707107 4126.57 2909)">space exploration</text></g><g clip-path="url(#clip44)"><text fill="#595959" fill-opacity="1" font-family="Calibri,Calibri_MSFontService,sans-serif" font-style="normal" font-variant="normal" font-weight="400" font-stretch="normal" font-size="41" text-anchor="start" direction="ltr" writing-mode="lr-tb" unicode-bidi="normal" text-decoration="none" transform="matrix(0.707107 -0.707107 0.707107 0.707107 4339.41 2778)">spaces</text></g><g clip-path="url(#clip45)"><text fill="#595959" fill-opacity="1" font-family="Calibri,Calibri_MSFontService,sans-serif" font-style="normal" font-variant="normal" font-weight="400" font-stretch="normal" font-size="41" text-anchor="start" direction="ltr" writing-mode="lr-tb" unicode-bidi="normal" text-decoration="none" transform="matrix(0.707107 -0.707107 0.707107 0.707107 4315.87 2884)">tabletop games</text></g><g clip-path="url(#clip46)"><text fill="#595959" fill-opacity="1" font-family="Calibri,Calibri_MSFontService,sans-serif" font-style="normal" font-variant="normal" font-weight="400" font-stretch="normal" font-size="41" text-anchor="start" direction="ltr" writing-mode="lr-tb" unicode-bidi="normal" text-decoration="none" transform="matrix(0.707107 -0.707107 0.707107 0.707107 4467.75 2813)">television</text></g><g clip-path="url(#clip47)"><text fill="#595959" fill-opacity="1" font-family="Calibri,Calibri_MSFontService,sans-serif" font-style="normal" font-variant="normal" font-weight="400" font-stretch="normal" font-size="41" text-anchor="start" direction="ltr" writing-mode="lr-tb" unicode-bidi="normal" text-decoration="none" transform="matrix(0.707107 -0.707107 0.707107 0.707107 4523.81 2839)">translations</text></g><g clip-path="url(#clip48)"><text fill="#595959" fill-opacity="1" font-family="Calibri,Calibri_MSFontService,sans-serif" font-style="normal" font-variant="normal" font-weight="400" font-stretch="normal" font-size="41" text-anchor="start" direction="ltr" writing-mode="lr-tb" unicode-bidi="normal" text-decoration="none" transform="matrix(0.707107 -0.707107 0.707107 0.707107 4596.87 2848)">video games</text></g><g clip-path="url(#clip49)"><text fill="#595959" fill-opacity="1" font-family="Calibri,Calibri_MSFontService,sans-serif" font-style="normal" font-variant="normal" font-weight="400" font-stretch="normal" font-size="41" text-anchor="start" direction="ltr" writing-mode="lr-tb" unicode-bidi="normal" text-decoration="none" transform="matrix(0.707107 -0.707107 0.707107 0.707107 4705.82 2821)">wearables</text></g><g clip-path="url(#clip50)"><text fill="#595959" fill-opacity="1" font-family="Calibri,Calibri_MSFontService,sans-serif" font-style="normal" font-variant="normal" font-weight="400" font-stretch="normal" font-size="41" text-anchor="start" direction="ltr" writing-mode="lr-tb" unicode-bidi="normal" text-decoration="none" transform="matrix(0.707107 -0.707107 0.707107 0.707107 4858.33 2750)">web</text></g><g clip-path="url(#clip51)"><text fill="#595959" fill-opacity="1" font-family="Calibri,Calibri_MSFontService,sans-serif" font-style="normal" font-variant="normal" font-weight="400" font-stretch="normal" font-size="41" text-anchor="start" direction="ltr" writing-mode="lr-tb" unicode-bidi="normal" text-decoration="none" transform="matrix(0.707107 -0.707107 0.707107 0.707107 4846.72 2843)">world music</text></g><g clip-path="url(#clip52)"><text fill="#595959" fill-opacity="1" font-family="Calibri,Calibri_MSFontService,sans-serif" font-style="normal" font-variant="normal" font-weight="400" font-stretch="normal" font-size="64" text-anchor="start" direction="ltr" writing-mode="lr-tb" unicode-bidi="normal" text-decoration="none" transform="matrix(1 0 0 1 3306.14 710)">Subcategory Outcomes</text></g><g clip-path="url(#clip53)"><rect x="5094" y="1655" width="23" height="22.9996" fill="#FFC000" fill-opacity="1"/></g><g clip-path="url(#clip54)"><text fill="#595959" fill-opacity="1" font-family="Calibri,Calibri_MSFontService,sans-serif" font-style="normal" font-variant="normal" font-weight="400" font-stretch="normal" font-size="41" text-anchor="start" direction="ltr" writing-mode="lr-tb" unicode-bidi="normal" text-decoration="none" transform="matrix(1 0 0 1 5126.25 1676)">successful</text></g><g clip-path="url(#clip55)"><rect x="5094" y="1732" width="23" height="22.9996" fill="#A5A5A5" fill-opacity="1"/></g><g clip-path="url(#clip56)"><text fill="#595959" fill-opacity="1" font-family="Calibri,Calibri_MSFontService,sans-serif" font-style="normal" font-variant="normal" font-weight="400" font-stretch="normal" font-size="41" text-anchor="start" direction="ltr" writing-mode="lr-tb" unicode-bidi="normal" text-decoration="none" transform="matrix(1 0 0 1 5126.25 1754)">live</text></g><g clip-path="url(#clip57)"><rect x="5094" y="1810" width="23" height="22" fill="#ED7D31" fill-opacity="1"/></g><g clip-path="url(#clip58)"><text fill="#595959" fill-opacity="1" font-family="Calibri,Calibri_MSFontService,sans-serif" font-style="normal" font-variant="normal" font-weight="400" font-stretch="normal" font-size="41" text-anchor="start" direction="ltr" writing-mode="lr-tb" unicode-bidi="normal" text-decoration="none" transform="matrix(1 0 0 1 5126.25 1831)">failed</text></g><g clip-path="url(#clip59)"><rect x="5094" y="1887" width="23" height="23" fill="#4472C4" fill-opacity="1"/></g><g clip-path="url(#clip60)"><text fill="#595959" fill-opacity="1" font-family="Calibri,Calibri_MSFontService,sans-serif" font-style="normal" font-variant="normal" font-weight="400" font-stretch="normal" font-size="41" text-anchor="start" direction="ltr" writing-mode="lr-tb" unicode-bidi="normal" text-decoration="none" transform="matrix(1 0 0 1 5126.25 1908)">canceled</text></g><rect x="1865.5" y="614.5" width="3484" height="2333" stroke="#D9D9D9" stroke-width="3.4375" stroke-linecap="butt" stroke-linejoin="round" stroke-miterlimit="10" stroke-opacity="1" fill="none"/></g></svg>